# xmcd CD database file
#
# Track frame offsets:
#	150
#	61830
#	105930
#	169488
#	205188
#
# Disc length: 3439 seconds
#
# Revision: 0
# Processed by: cddbd v1.5.1PL0 Copyright (c) Steve Scherf et al.
# Submitted via: CDex 1.51
#
DISCID=3b0d6d05
DTITLE=På resa med Själen - Fem meditationer
DYEAR=1900
DGENRE=New Age
TTITLE0=Vitt ljus
TTITLE1=Inre frid
TTITLE2=Själens Brunn
TTITLE3=Lotusblomman
TTITLE4=Möt ditt Högre Jag
EXTD=
EXTT0=
EXTT1=
EXTT2=
EXTT3=
EXTT4=
PLAYORDER=
